<?xml version="1.0" encoding="utf-8"?>
<!-- Generator: Adobe Illustrator 25.2.3, SVG Export Plug-In . SVG Version: 6.00 Build 0)  -->
<svg version="1.1" id="Capa_1" xmlns="http://www.w3.org/2000/svg" xmlns:xlink="http://www.w3.org/1999/xlink" x="0px" y="0px"
	 viewBox="0 0 16 16" style="enable-background:new 0 0 16 16;" xml:space="preserve">
<style type="text/css">
	.st0{fill:#045A89;}
</style>
<path class="st0" d="M3.02,12.41c0-0.29,0-0.55,0-0.8c0-3.27,0.01-6.53-0.02-9.8c0-0.56,0.15-0.74,0.72-0.72
	C5.14,1.13,6.56,1.08,7.97,1.1c2.13,0.03,3.51,1.16,3.98,3.23c0.26,1.17,0.25,2.34-0.27,3.45C11,9.21,9.77,9.82,8.28,9.97
	C7.28,10.08,6.3,10.02,5.34,9.5l-0.02,5.36c0,0-1.83-0.06-2.3-0.06C3.01,14.24,3.02,12.41,3.02,12.41z M9.01,3.56
	c-0.47,0.52-0.9,1-1.37,1.52C7.26,4.7,6.92,4.35,6.43,3.83C5.66,4.67,4.92,5.48,4.18,6.29C3.97,6.52,3.58,6.71,3.96,7.1
	c0.37,0.39,0.59,0.06,0.82-0.17c0.57-0.59,1.13-1.18,1.7-1.77c0.31,0.31,0.55,0.52,0.75,0.76c0.29,0.36,0.52,0.32,0.81,0
	c0.52-0.58,1.06-1.13,1.59-1.7c0.24,0.22,0.38,0.34,0.59,0.53c0.15-0.66,0.28-1.24,0.42-1.91C9.97,2.96,9.38,3.07,8.74,3.2
	C8.87,3.37,8.96,3.5,9.01,3.56z M8.93,5.78L8.92,8.82h0.85V4.68L8.93,5.78z M6.69,5.72v3.12h0.84L7.47,6.57L6.69,5.72z M6.4,5.83
	L5.53,6.72c0,0-0.03,1.4-0.03,2.1c0.34,0,0.61,0,0.9,0C6.4,7.79,6.4,5.83,6.4,5.83z M8.61,8.83c0-1.02,0-2.04,0-3.22
	C8.26,6.03,7.8,6.61,7.8,6.61L7.77,8.83C7.77,8.83,8.32,8.83,8.61,8.83z M5.22,8.85c0-0.64,0-1.89,0-1.89L4.56,7.69l0.05,1.16
	C4.61,8.85,4.99,8.85,5.22,8.85z"/>
</svg>
