<?xml version="1.0" encoding="utf-8"?>
<!-- Generator: Adobe Illustrator 25.2.3, SVG Export Plug-In . SVG Version: 6.00 Build 0)  -->
<svg version="1.1" id="Capa_1" xmlns="http://www.w3.org/2000/svg" xmlns:xlink="http://www.w3.org/1999/xlink" x="0px" y="0px"
	 viewBox="0 0 640 480" style="enable-background:new 0 0 640 480;" xml:space="preserve">
<style type="text/css">
	.st0{fill:#045A89;stroke:#045A89;stroke-miterlimit:10;}
</style>
<path d="M1008-226c0-176.33,0-352.67,0-529c305,0,610,0,915,0c-0.04,2-0.13,3.99-0.13,5.99c-0.01,172.11-0.01,344.22-0.01,516.33
	c0,2.09,0,4.18,0,6.55c-3.04,0-5.36,0-7.67,0c-300.23,0.02-600.46,0.04-900.69,0.06C1012.33-226.07,1010.17-226.02,1008-226z
	 M1459.74-433.34c-50.56,0-100.13,0-150.03,0c0-2.42,0-4.41,0-6.4c0-28.17,0-56.33,0-84.5c0-10.91-2.06-12.03-11.84-6.41
	c-0.58,0.33-1.1,0.97-1.69,1.02c-1.5,0.15-3.08,0.33-4.52,0c-6.1-1.42-12.09-4.03-18.23-4.37c-22.13-1.22-37.81,9.61-40.76,29.02
	c-1.26,8.29-0.4,17.42,1.7,25.6c5.29,20.54,28.97,30.66,47.49,21.12c2.27-1.17,4.34-2.73,6.65-4.21c0,10.1,0,19.65,0,29.98
	c-51.16,0-101.89,0-152.61,0c0,0.51,0,1.02,0,1.53c1.91,0,3.82,0,5.73,0c47.33,0.01,94.66,0.05,141.99-0.06
	c4.04-0.01,5.74,0.98,5.41,5.26c-0.34,4.41-0.08,8.87-0.08,13.36c7.26,0,13.8,0,20.99,0c0-6.32,0-12.21,0-18.2
	c1.45-0.16,2.26-0.32,3.07-0.32c47.5-0.01,94.99,0.03,142.49-0.06c3.44-0.01,4.28,1.41,4.19,4.47c-0.15,4.74-0.04,9.48-0.04,14.57
	c4.17,0,7.32,0,10.47,0c3.12,0,6.24,0,9.03,0c0.45-0.93,0.71-1.21,0.72-1.51c0.08-3.66,0.16-7.32,0.18-10.99
	c0.04-6.47,0.02-6.48,6.54-6.48c62.5,0.01,124.99,0.02,187.49,0.03c42.83,0.01,85.66,0.02,128.49-0.01c1.92,0,3.83-0.34,5.75-0.53
	c-0.05-0.51-0.1-1.03-0.15-1.54c-109.18,0-218.37,0-327.74,0c0-9.03,0-17.37,0-26.31c8.63,4.63,17.38,5.14,26.23,4.2
	c13.34-1.42,24.36-6.82,30.4-19.58c4.7-9.92,4.77-20.37,2.43-30.83c-4.14-18.48-16.53-28.5-35.52-28.81
	c-12.66-0.2-25.34,0.2-37.99-0.16c-5.09-0.14-6.46,1.4-6.42,6.44c0.25,29.16,0.16,58.33,0.18,87.49
	C1459.74-438.22,1459.74-435.92,1459.74-433.34z M1159.63-569.19c14.04-0.48,27.21,1.47,39.43,7.92
	c7.67,4.05,13.21,10.04,15.14,18.84c0.16,0.75,1.04,1.33,2.37,2.96c0-11.51,0-21.79,0-32.17c-27.11,0-53.86,0-80.83,0
	c0,38.94,0,77.61,0,116.24c27.99,0,55.55,0,82.94,0c0-12.05,0-23.66,0-35.28c-0.35-0.26-0.7-0.51-1.05-0.77
	c-9.47,28.82-32.61,33.02-57.91,34.31c0-19.12,0-37.18,0-55.75c14.37,0.81,28.25,1.17,34.72,17.11c0-12.21,0-24.43,0-36.64
	c-6.58,16.3-20.34,16.94-34.81,17.44C1159.63-533.31,1159.63-551.03,1159.63-569.19z M1398.05-454.73c0-26.09,0.03-51.38-0.13-76.66
	c-0.01-0.97-1.79-2.5-2.97-2.77c-2.06-0.46-4.3-0.16-6.47-0.16c-10.95,0-10.95,0.01-10.95,10.72c0,13.83-0.63,27.7,0.24,41.47
	c0.49,7.82-9.72,15.93-15.79,15.69c-9.03-0.35-13.09-4.74-13.14-15.1c-0.06-15.66-0.01-31.32-0.03-46.98c0-1.77-0.15-3.54-0.25-5.77
	c-5.68,0-10.83,0.17-15.96-0.06c-3.6-0.16-4.49,1.31-4.46,4.69c0.14,16.16,0.02,32.32,0.1,48.48c0.02,3.48,0.33,6.99,0.83,10.44
	c1.49,10.33,7.31,15.46,17.76,16.03c8.27,0.45,15.38-2.56,21.67-7.54c2.98-2.37,5.43-5.42,9.05-9.11c0,5.17-0.29,9,0.15,12.74
	c0.16,1.4,1.93,3.64,3.09,3.72C1386.25-454.5,1391.74-454.73,1398.05-454.73z M1750.57-455.22c9.35,0,17.64-0.11,25.93,0.06
	c3.25,0.07,4.22-1.1,4.39-4.32c0.48-9.47,0.87-18.98,2.16-28.36c3.18-23.12,9.51-45.31,22.4-65.07c2.95-4.52,3.33-8.31,0.9-12.64
	c-20.52,0-40.91,0-61.78,0c0,6.72,0.19,13.04-0.07,19.34c-0.16,3.96,1.29,5.13,5.18,5.09c13.82-0.15,27.65,0.01,41.47,0.09
	c1.38,0.01,2.76,0.22,4.78,0.4C1772.87-516.19,1755.09-489.82,1750.57-455.22z M1590.13-534.22c-23.92,0.05-39.58,15.95-39.45,40.04
	c0.13,23.71,16.02,39.56,39.57,39.47c23.5-0.08,39.8-16.38,39.63-39.62C1629.69-518.48,1613.95-534.27,1590.13-534.22z
	 M1443.66-534.32c-5.54,0-10.81,0.14-16.07-0.05c-3.36-0.12-4.31,1.29-4.24,4.44c0.16,6.82,0.04,13.65,0.04,20.47
	c0,16.65-0.07,33.29,0.12,49.94c0.02,1.61,1.61,4.49,2.64,4.57c5.73,0.45,11.51,0.22,17.51,0.22
	C1443.66-481.5,1443.66-507.54,1443.66-534.32z M1726.68-445.5c-27.68,0-55.06,0-82.37,0c-1.2,7.69-1.13,7.8,6.01,7.8
	c23.49,0.01,46.98,0.02,70.48,0.01c1.93,0,3.86-0.21,5.88-0.32C1726.68-440.81,1726.68-443.05,1726.68-445.5z M1431.73-548
	c6.71,0.1,11.5-4.46,11.54-10.98c0.04-6.29-4.56-11.05-10.87-11.23c-6.59-0.19-11.45,4.5-11.46,11.05
	C1420.94-552.69,1425.38-548.09,1431.73-548z M1533.09-402.69c3.14,3.94,3.12,19.14-0.07,23.07c2.07,0,4.09,0,6.19,0
	c-3.92-5.71-1.45-11.51-1.07-17.34c4.08,6,8.15,11.99,12.23,17.99c0.57-0.23,1.14-0.46,1.72-0.7c0-3.91-0.09-7.83,0.03-11.74
	c0.12-3.78,0.45-7.55,0.7-11.44c-0.84,0-2.78,0-4.43,0c3.19,5.38,1.12,10.97,1.14,16.49c-3.38-4.3-6.42-8.64-9.1-13.19
	C1538.64-402.58,1536.5-403.89,1533.09-402.69z M1283.82-379.56c-0.39-3.45-0.76-6.75-1.26-11.14c6.83,2.62,6.08,11.9,13.74,11.15
	c-2.53-3.66-4.92-7.12-7.32-10.58c0.59,0.03,1.18,0.05,1.77,0.08c0.86-2.88,2.69-5.87,2.36-8.61c-0.5-4.09-4.53-4.2-7.91-4.3
	c-2.57-0.08-5.14-0.01-6.98-0.01c2.31,8.03,2.27,15.68-0.02,23.42C1280.38-379.56,1282.62-379.56,1283.82-379.56z M1636.8-392.63
	c0.18-2.12,1.56-5.49,0.43-7.13c-3.8-5.51-9.9-2.58-14.58-3.29c1.84,8.07,2.24,15.76-0.46,23.79c2.81,0,5.92,0.56,8.7-0.16
	c2.78-0.71,6.4-2.11,7.5-4.3C1639.4-385.72,1637.54-389.17,1636.8-392.63z M1500.95-391.35c-0.01,7.65,3.67,12.14,10.05,12.26
	c6.51,0.13,10.76-4.72,10.74-12.25c-0.03-7.29-4.11-11.94-10.48-11.94C1504.69-403.28,1500.95-398.95,1500.95-391.35z
	 M1601.66-403.39c-0.62,0.04-1.25,0.08-1.87,0.12c-3.18,7.93-6.35,15.87-9.55,23.85c1.77,0,3.73,0,4.67,0
	c0.15-2.53-0.42-6.14,0.54-6.6c2.31-1.12,5.8-1.74,7.9-0.7c1.63,0.81,1.87,4.42,2.83,7.08c0.98,0,3.02,0,4.51,0
	C1607.63-387.67,1604.64-395.53,1601.66-403.39z M1400.78-391.42c-0.02,7.75,3.59,12.17,10.03,12.32
	c6.38,0.15,10.44-4.49,10.46-11.92c0.02-7.69-3.61-12.06-10.13-12.19C1404.45-403.35,1400.8-399.19,1400.78-391.42z M1695.29-382.83
	c-3.89,0.82-7.33,1.54-11.03,2.32c0-4.23,0-7.16,0-10.26c2.39-0.21,4.49-0.39,6.59-0.57c-0.01-0.24-0.02-0.47-0.04-0.71
	c-2.21-0.26-4.41-0.52-6.51-0.76c0-3.12,0-5.7,0-9.75c3.78,1.39,6.78,2.48,9.77,3.58c-0.08-0.92-0.21-2.33-0.35-3.92
	c-5.11,0-9.89,0-14.75,0c2.25,4.72,2.3,18.13,0.04,23.66c4.25,0,8.4-0.1,12.55,0.03C1695.24-379.08,1695.75-380.96,1695.29-382.83z
	 M1264.79-402.77c-5.23,0-9.94,0-13.98,0c0,7.87,0,15.48,0,23.47c3.39,0,7.51,0.07,11.63-0.02c4.02-0.09,4.04-0.21,3.41-3.23
	c-3.49,0.68-6.95,1.34-10.53,2.04c0-4.26,0-7.31,0-10.37c2.45-0.18,4.5-0.32,6.54-0.47c0-0.2,0-0.41,0.01-0.61
	c-2.22-0.25-4.44-0.5-6.55-0.74c0-3.15,0-5.87,0-8.76c2.21,0,4.14-0.4,5.76,0.12c1.4,0.45,2.45,1.97,4.08,3.39
	C1265.01-399.85,1264.91-401.14,1264.79-402.77z M1707.31-385.32c-0.41,0.08-0.83,0.16-1.24,0.24c0.09,1.19-0.2,3.14,0.35,3.42
	c2.22,1.14,4.88,2.69,7.06,2.31c2.35-0.42,5.19-2.42,6.21-4.51c0.75-1.53-0.53-4.81-1.93-6.43c-1.52-1.76-4.3-2.37-6.37-3.72
	c-2.4-1.57-3.48-3.92-1.43-6.31c1.96-2.29,4.4-2.12,6.3,0.39c0.55,0.73,0.74,1.74,1.09,2.62c0.59-0.42,1.17-0.83,1.76-1.25
	c-0.3-1.09-0.29-2.46-0.97-3.22c-2.25-2.51-8.64-1.87-10.86,0.92c-2.22,2.78-1.54,6.85,1.77,9.12c1.9,1.3,4.67,1.75,5.94,3.43
	c1.16,1.53,0.82,4.2,1.14,6.36c-2.25-0.03-4.58,0.24-6.73-0.24C1708.51-382.41,1707.99-384.24,1707.31-385.32z M1313.28-379.33
	c0.62,0.05,1.24,0.11,1.86,0.16c1.42-3.96,2.83-7.94,4.28-11.89c1.44-3.92,2.93-7.82,4.43-11.79c-1.83,0-3.62,0-5.55,0
	c2.39,3.25,0.33,12.61-3.86,18.32c-5.33-14.72-5.34-14.74-3.98-18.32c-2.12,0-4.24,0-5.86,0
	C1307.5-395.01,1310.39-387.17,1313.28-379.33z M1236.85-399c-0.15-0.61-0.09-1.95-0.73-2.7c-2.03-2.36-8.27-1.93-10.54,0.55
	c-2.43,2.64-1.96,6.84,1.28,9.17c1.87,1.35,4.32,1.94,6.03,3.43c1.18,1.03,2.05,2.98,2.09,4.55c0.03,1.02-1.61,2.88-2.61,2.96
	c-1.75,0.14-3.71-0.57-5.34-1.4c-0.91-0.46-1.33-1.89-1.97-2.89c-0.51,0.35-1.03,0.69-1.54,1.04c1.1,1.53,1.88,3.66,3.38,4.47
	c3.79,2.05,9.4,0.09,10.82-3.31c1.54-3.68-0.3-6.42-5.21-9.29c-2.19-1.28-3.9-3.58-5.4-5.72c-0.29-0.41,1.57-3.29,2.19-3.2
	C1231.73-401,1234.06-399.94,1236.85-399z M1433.65-385.48c-1.57,3.34-1.15,4.58,1.72,5.81c3.98,1.7,9.25,0.04,10.88-3.43
	c1.7-3.62-0.12-6.42-5.08-9.28c-2.21-1.28-3.97-3.51-5.5-5.63c-0.31-0.43,1.5-3.36,2.08-3.28c2.41,0.32,4.73,1.36,7.62,2.3
	c-0.06-0.41,0.03-2.23-0.42-2.38c-2.42-0.78-5.11-1.87-7.43-1.42c-1.78,0.35-4.21,2.67-4.44,4.37c-0.28,2.03,1.02,4.75,2.5,6.41
	c1.45,1.63,4.05,2.18,5.99,3.45c2.48,1.61,3.52,4.41,1.15,6.18c-1.54,1.15-4.65,0.53-6.96,0.12
	C1434.93-382.39,1434.41-384.24,1433.65-385.48z M1564.32-398.76c2.2-1.01,4.03-1.86,5.87-2.71c0.57,1.7,1.4,3.35,1.66,5.1
	c0.29,1.95,0.17,3.98,0.04,5.96c-0.22,3.57-0.58,7.13-0.9,10.89c1.3,0,3.68,0,6.53,0c-0.9-1.17-2.08-2.01-2.12-2.88
	c-0.22-5.79-0.29-11.59-0.02-17.37c0.02-0.44,3.09-1.11,4.67-0.94c0.76,0.08,1.34,1.86,2.6,3.78c0-2.66,0-4.18,0-5.76
	c-6.29,0-12.31,0-18.33,0C1564.32-400.86,1564.32-399.45,1564.32-398.76z M1651.6-402.94c1.86,8.11,2.38,15.77-0.36,23.46
	c5.12,0,10.24,0,15.8,0c0.16-2.17,0.31-4.12,0.45-6.07c-2.2,6.21-6.81,4.57-10.51,4.43c0-7.51,0-14.63,0-21.82
	C1655.44-402.94,1653.3-402.94,1651.6-402.94z M1371.3-383.08c-7.48,2.98-11.42,2.2-12.98-2.41c-0.78-2.3-0.98-4.92-0.89-7.37
	c0.14-3.52,0.56-7.62,4.79-8.31c2.35-0.38,5.05,1.33,8.45,2.36c-0.4-0.96-0.57-2.68-1.51-3.39c-3.26-2.47-10.43-0.76-13,2.83
	c-3.74,5.21-2.8,14.94,1.77,18.35C1361.99-378,1367.26-378.55,1371.3-383.08z M1489.17-381.58c-2.73-0.2-6.27,0.46-8.81-0.84
	c-4.7-2.39-4.79-14.81-0.45-17.97c2.46-1.79,5.25-2.42,7.39,0.67c0.53,0.76,0.6,1.84,0.88,2.77c0.63-0.55,1.26-1.11,1.89-1.66
	c1.02-2.82-0.91-3.87-3.52-4.43c-5.57-1.18-10.38,1.26-12.22,6.15c-2.38,6.32-0.42,14.05,4.22,16.6
	C1482.65-378.04,1487.25-378.85,1489.17-381.58z M1382.71-402.84c1.89,7.83,2.04,15.49-0.13,23.31c1.82,0,4.08,0,5.78,0
	c-2.23-7.84-1.87-15.49-0.14-23.31C1386.52-402.84,1384.41-402.84,1382.71-402.84z M1335.07-402.83c2.93,4.35,2.85,19.41-0.17,23.22
	c2.49,0,4.83,0,6.54,0c-2.16-7.89-2.17-15.44,0.03-23.22C1339.73-402.83,1337.46-402.83,1335.07-402.83z"/>
<g>
	<path class="st0" d="M357.74,191.66c0-2.59,0-4.88,0-7.17c-0.02-29.16,0.07-58.33-0.18-87.49c-0.04-5.04,1.33-6.58,6.42-6.44
		c12.66,0.35,25.33-0.05,37.99,0.16c19,0.31,31.38,10.33,35.52,28.81c2.34,10.45,2.27,20.91-2.43,30.83
		c-6.04,12.76-17.06,18.17-30.4,19.58c-8.85,0.94-17.6,0.43-26.23-4.2v26.31l234.06,0.46v2c0,0,2.42-0.37-40.42-0.38
		c-62.5-0.01-124.99-0.02-187.49-0.03c-6.52,0-6.5,0.01-6.54,6.48c-0.02,3.66-0.56,12.93-0.56,12.93s-15.67-0.43-19.84-0.43
		c0-5.09-0.11-9.83,0.04-14.57c0.09-3.06-0.74-4.47-4.19-4.47c-47.5,0.09-94.99,0.05-142.49,0.06c-0.81,0-1.62,0.16-3.07,0.32v18.2
		h-20.99c0-4.49-0.26-8.95,0.08-13.36c0.33-4.28-1.37-5.27-5.41-5.26c-47.33,0.12-94.66,0.07-141.99,0.06c-1.91,0-7.82,0-9.73,0
		c0-0.51,0-1.02,0-1.53h156.61v-29.98c-2.31,1.48-4.38,3.04-6.65,4.21c-18.51,9.54-42.19-0.58-47.49-21.12
		c-2.11-8.18-2.97-17.31-1.7-25.6c2.95-19.41,18.63-30.25,40.76-29.02c6.14,0.34,12.13,2.95,18.23,4.37
		c1.43,0.33,5.83-0.87,6.83-1.87c3.81-3.81,11-5,11-3c0,23.69,0.21,66.6,0.21,94.76c0,1.99,0,3.98,0,6.4H357.74z M183.73,104.23
		c-2.16-8.03-8.89-11.39-17.05-10.71c-6.91,0.57-11.68,4.69-13.36,12.75c-3.34,16.01-3.46,32.07,1.09,47.91
		c2.43,8.46,8.56,12.76,16.54,12.27c8.6-0.53,13.68-4.72,15.08-13.79C187.07,145.95,186.16,113.25,183.73,104.23z M411.18,112.68
		c-4.21,4.66-8.06,8.92-12.28,13.59c-3.28-3.41-6.35-6.6-10.75-11.18c-6.81,7.46-13.45,14.7-20.06,21.97c-1.87,2.06-5.4,3.69-2,7.25
		c3.3,3.45,5.27,0.56,7.32-1.55c5.08-5.23,10.1-10.5,15.23-15.84c2.78,2.8,4.94,4.64,6.7,6.82c2.56,3.17,4.62,2.89,7.21-0.02
		c4.61-5.18,9.47-10.13,14.23-15.2c2.19,1.95,3.4,3.03,5.27,4.69c1.3-5.87,2.46-11.09,3.78-17.03c-6.03,1.14-11.3,2.15-17.07,3.24
		C409.94,110.98,410.79,112.15,411.18,112.68z M410.5,132.5l-0.08,27.16h7.61v-36.97L410.5,132.5z M390.48,131.94v27.83h7.48
		l-0.46-20.27L390.48,131.94z M387.9,132.91l-7.76,7.93c0,0-0.31,12.48-0.31,18.79c3.05,0,5.41,0,8.07,0
		C387.9,150.44,387.9,132.91,387.9,132.91z M407.63,159.75c0-9.15,0-18.21,0-28.73c-3.09,3.64-7.19,8.87-7.19,8.87l-0.3,19.86
		C400.14,159.75,405.03,159.75,407.63,159.75z M377.35,159.87c0-5.7,0-16.87,0-16.87l-5.85,6.5l0.44,10.37
		C371.94,159.87,375.34,159.87,377.35,159.87z"/>
	<path class="st0" d="M53.63,55.81c0,18.16,0,35.88,0,54.22c14.47-0.51,28.22-1.15,34.81-17.44c0,12.21,0,24.43,0,36.64
		c-6.47-15.94-20.36-16.3-34.72-17.11c0,18.58,0,36.63,0,55.75c25.3-1.29,48.45-5.49,57.91-34.31c0.35,0.26,0.7,0.51,1.05,0.77
		c0,11.61,0,23.23,0,35.28c-27.4,0-54.95,0-82.94,0c0-38.63,0-77.3,0-116.24c26.97,0,53.72,0,80.83,0c0,10.38,0,20.66,0,32.17
		c-1.33-1.62-2.2-2.21-2.37-2.96c-1.93-8.81-7.47-14.8-15.14-18.84C80.85,57.28,67.67,55.33,53.63,55.81z"/>
	<path class="st0" d="M292.05,170.27c-6.3,0-11.8,0.22-17.24-0.18c-1.16-0.08-2.93-2.32-3.09-3.72c-0.43-3.75-0.15-7.57-0.15-12.74
		c-3.62,3.69-6.07,6.74-9.05,9.11c-6.29,4.99-13.39,7.99-21.67,7.54c-10.46-0.56-16.28-5.69-17.76-16.03
		c-0.5-3.45-0.81-6.96-0.83-10.44c-0.09-16.16,0.04-32.32-0.1-48.48c-0.03-3.38,0.86-4.85,4.46-4.69
		c5.13,0.23,10.28,0.06,15.96,0.06c0.1,2.24,0.25,4.01,0.25,5.77c0.02,15.66-0.03,31.32,0.03,46.98
		c0.04,10.36,4.11,14.75,13.14,15.1c6.07,0.24,16.28-7.87,15.79-15.69c-0.87-13.77-0.24-27.64-0.24-41.47
		c0-10.71,0-10.71,10.95-10.72c2.17,0,9.02-0.18,9.02-0.18S292.05,144.18,292.05,170.27z"/>
	<path class="st0" d="M535.98,189.31c6.03-41.65,29.77-73.4,60.57-102.82c-2.7-0.21-4.54-0.47-6.38-0.48
		c-18.46-0.09-36.92-0.29-55.37-0.11c-5.19,0.05-7.13-1.36-6.92-6.13c0.34-7.59,0.09-15.19,0.09-23.28c27.87,0,55.09,0,82.49,0
		c3.24,5.22,2.73,9.77-1.2,15.22c-17.2,23.79-25.65,50.5-29.9,78.33c-1.72,11.29-2.25,22.74-2.89,34.14
		c-0.22,3.87-1.51,5.27-5.86,5.2C559.53,189.18,548.45,189.31,535.98,189.31z"/>
	<path class="st0" d="M484.13,89.78c23.83-0.05,39.57,15.75,39.75,39.9c0.18,23.23-16.13,39.53-39.63,39.62
		c-23.56,0.09-39.44-15.76-39.57-39.47C444.54,105.73,460.21,89.83,484.13,89.78z M497.25,103.72c0.25-9.22-5.57-11.46-13.19-11.41
		c-7.62,0.04-13.56,2.19-13.22,11.48c-0.34,18.71-0.34,31.71,0.11,52.06c0.55,8.64,5.55,11.26,13.17,10.97
		c8.38-0.32,12.38-1.32,13.03-11.05C497.5,146.5,497.5,113.5,497.25,103.72z"/>
	<path class="st0" d="M337.66,90.68c0,26.77,0,52.82,0,79.59c-6,0-11.78,0.23-17.51-0.22c-1.03-0.08-2.62-2.97-2.64-4.57
		c-0.2-16.64-0.12-33.29-0.12-49.94c0-6.82,0.11-13.65-0.04-20.47c-0.07-3.14,1.15-4.57,3.15-4.57
		C325.76,90.5,332.12,90.68,337.66,90.68z"/>
	<path class="st0" d="M325.73,77c-6.35-0.09-10.79-4.69-10.79-11.16c0.01-6.55,4.87-11.24,11.46-11.05
		c6.31,0.18,10.91,4.94,10.87,11.23C337.23,72.54,332.43,77.1,325.73,77z"/>
	<g>
		<path class="st0" d="M84.34,229.63c-0.8-2.56-1.92-5.48-5.6-5.48c-2.32,0-3.84,1.64-3.84,3.88c0,2.2,1.48,3.52,5,5.28
			c4.28,2.12,7,4.2,7,8.16c0,4.72-3.92,8.16-9.64,8.16c-2.56,0-4.84-0.68-6.72-1.24c-0.24-0.92-0.92-5.08-1.2-6.96l1.56-0.36
			c0.8,2.52,3.04,6.88,6.96,6.88c2.44,0,3.92-1.52,3.92-4.08c0-2.32-1.44-3.68-4.8-5.48c-4.16-2.24-6.88-4.24-6.88-8.4
			c0-4.2,3.28-7.52,9.28-7.52c2.76,0,4.84,0.6,5.72,0.72c0.16,1.48,0.44,3.56,0.76,6.08L84.34,229.63z"/>
		<path class="st0" d="M114.7,242.23c-0.2,1.08-1.32,5.68-1.68,6.8H92.26v-1.44c3.64-0.36,3.88-0.56,3.88-3.92v-15.28
			c0-3.4-0.48-3.64-3.2-3.88v-1.48h13c4.2,0,5.6-0.04,6.16-0.08c0.04,0.72,0.24,4,0.4,6.48l-1.56,0.2c-0.36-1.36-1.04-3-1.72-3.72
			c-0.72-0.8-1.24-1.04-3.28-1.04h-2.6c-1.52,0-1.68,0.08-1.68,1.44v8.36h3.92c2.24,0,2.64-0.6,3.24-3.44h1.56v8.92h-1.56
			c-0.64-2.96-0.96-3.44-3.28-3.44h-3.88v6.88c0,2.76,0.08,3.6,2.56,3.64h2.84c2.24,0,2.84-0.28,3.72-1.36c1-1.16,1.8-2.64,2.44-4
			L114.7,242.23z"/>
		<path class="st0" d="M144.9,249.27c-0.24,0-0.72,0-1.2-0.04c-5.08-0.24-6.56-1.32-7.76-3c-1.6-2.2-2.76-4.64-4.12-7.04
			c-0.6-1.08-1.16-1.32-2.44-1.32l-0.8-0.04v5.84c0,3.24,0.4,3.52,3.4,3.88v1.48h-12.24v-1.48c3.04-0.32,3.4-0.64,3.4-3.88v-15.32
			c0-3.16-0.4-3.6-3.4-3.84v-1.48h11.6c3.56,0,5.6,0.4,7.24,1.52c1.6,1.08,2.68,2.84,2.68,5.32c0,3.56-2.36,5.44-5,6.48
			c0.6,1.2,2.16,3.8,3.36,5.64c1.4,2.2,2.28,3.28,3.04,4.16c0.92,1.04,1.36,1.36,2.52,1.76L144.9,249.27z M129.66,236.19
			c1.72,0,3.04-0.28,3.92-1.04c1.32-1.12,1.88-2.64,1.88-4.68c0-4.24-2.44-5.76-4.68-5.76c-1.08,0-1.6,0.16-1.84,0.4
			c-0.28,0.24-0.36,0.72-0.36,1.52v9.56H129.66z"/>
		<path class="st0" d="M174.22,224.51c-2.64,0.28-3.44,0.64-4.96,4.44c-1.24,3.08-5.36,13-8.32,20.52h-2.2
			c-1.12-3.12-6.32-16.84-8-21.08c-1.24-3-1.76-3.64-4.36-3.88v-1.48h12.2l-0.04,1.48c-2.92,0.4-2.92,0.68-2.28,2.36
			c1.24,3.36,4.24,11.6,5.6,15.12c2.4-5.72,4.56-11.16,5.48-13.76c1-2.76,0.72-3.36-2.64-3.72v-1.48h9.52V224.51z"/>
		<path class="st0" d="M178.58,249.03v-1.48c3.04-0.28,3.4-0.52,3.4-3.88v-15.24c0-3.36-0.4-3.68-3.4-3.92v-1.48h12.36v1.48
			c-3,0.28-3.4,0.56-3.4,3.92v15.24c0,3.32,0.36,3.56,3.4,3.88v1.48H178.58z"/>
		<path class="st0" d="M221.9,242.15c-0.56,2-1.6,5.04-2.24,6.44c-1.04,0.24-4.32,1.04-7.36,1.04c-10.76,0-15.2-6.92-15.2-13.28
			c0-8.28,6.32-13.88,15.92-13.88c3.48,0,6.56,0.84,7.56,0.96c0.2,1.88,0.48,4.84,0.76,6.6l-1.6,0.28c-0.84-3.12-2.04-4.6-4.16-5.44
			c-0.96-0.4-2.4-0.56-3.48-0.56c-5.8,0-8.72,4.84-8.72,11.12c0,7.32,3.76,12.28,9.24,12.28c3.36,0,5.6-1.76,7.76-6.16L221.9,242.15
			z"/>
		<path class="st0" d="M227.98,249.03v-1.48c3.04-0.28,3.4-0.52,3.4-3.88v-15.24c0-3.36-0.4-3.68-3.4-3.92v-1.48h12.36v1.48
			c-3,0.28-3.4,0.56-3.4,3.92v15.24c0,3.32,0.36,3.56,3.4,3.88v1.48H227.98z"/>
		<path class="st0" d="M260.5,222.47c7.4,0,13.44,5.4,13.44,13.28c0,8.52-6.08,13.88-13.64,13.88c-8,0-13.8-5.84-13.8-13.56
			C246.5,229.23,251.38,222.47,260.5,222.47z M259.9,224.23c-4.08,0-7.08,4-7.08,11.08c0,6.76,2.68,12.56,8.08,12.56
			c3.8,0,6.76-3.68,6.76-11C267.66,228.95,264.54,224.23,259.9,224.23z"/>
		<path class="st0" d="M295.3,229.63c-0.8-2.56-1.92-5.48-5.6-5.48c-2.32,0-3.84,1.64-3.84,3.88c0,2.2,1.48,3.52,5,5.28
			c4.28,2.12,7,4.2,7,8.16c0,4.72-3.92,8.16-9.64,8.16c-2.56,0-4.84-0.68-6.72-1.24c-0.24-0.92-0.92-5.08-1.2-6.96l1.56-0.36
			c0.8,2.52,3.04,6.88,6.96,6.88c2.44,0,3.92-1.52,3.92-4.08c0-2.32-1.44-3.68-4.8-5.48c-4.16-2.24-6.88-4.24-6.88-8.4
			c0-4.2,3.28-7.52,9.28-7.52c2.76,0,4.84,0.6,5.72,0.72c0.16,1.48,0.44,3.56,0.76,6.08L295.3,229.63z"/>
		<path class="st0" d="M340.86,242.15c-0.56,2-1.6,5.04-2.24,6.44c-1.04,0.24-4.32,1.04-7.36,1.04c-10.76,0-15.2-6.92-15.2-13.28
			c0-8.28,6.32-13.88,15.92-13.88c3.48,0,6.56,0.84,7.56,0.96c0.2,1.88,0.48,4.84,0.76,6.6l-1.6,0.28c-0.84-3.12-2.04-4.6-4.16-5.44
			c-0.96-0.4-2.4-0.56-3.48-0.56c-5.8,0-8.72,4.84-8.72,11.12c0,7.32,3.76,12.28,9.24,12.28c3.36,0,5.6-1.76,7.76-6.16
			L340.86,242.15z"/>
		<path class="st0" d="M360.94,222.47c7.4,0,13.44,5.4,13.44,13.28c0,8.52-6.08,13.88-13.64,13.88c-8,0-13.8-5.84-13.8-13.56
			C346.94,229.23,351.82,222.47,360.94,222.47z M360.34,224.23c-4.08,0-7.08,4-7.08,11.08c0,6.76,2.68,12.56,8.08,12.56
			c3.8,0,6.76-3.68,6.76-11C368.09,228.95,364.98,224.23,360.34,224.23z"/>
		<path class="st0" d="M408.41,224.51c-2.44,0.32-3.2,0.84-3.32,2.64c-0.12,1.56-0.24,2.92-0.24,6.4v15.92h-2.24l-16.68-20v9.04
			c0,3.48,0.08,5.04,0.2,6.2c0.16,1.76,1,2.68,3.96,2.84v1.48h-9.92v-1.48c2.28-0.2,3.28-0.8,3.52-2.68
			c0.16-1.44,0.24-2.88,0.24-6.36v-9.48c0-1.32-0.08-2.2-0.84-3.24c-0.72-1-1.68-1.12-3.36-1.28v-1.48h7.8l15.24,17.72v-7.2
			c0-3.48-0.04-4.8-0.16-6.28c-0.12-1.72-0.76-2.56-4.08-2.76v-1.48h9.88V224.51z"/>
		<path class="st0" d="M436.29,229.95c-0.44-1.84-1.32-3.36-1.72-3.92c-0.72-0.84-1.04-1.16-3.4-1.16h-2.56v18.8
			c0,3.36,0.4,3.6,3.96,3.88v1.48H419.3v-1.48c3.4-0.28,3.76-0.52,3.76-3.88v-18.8h-2.44c-2.24,0-2.88,0.36-3.64,1.32
			c-0.56,0.76-1.12,2.2-1.64,3.8h-1.52c0.28-2.92,0.56-6.04,0.64-7.96h1.2c0.6,0.92,1.08,1,2.28,1h16c1.08,0,1.64-0.24,2.32-1h1.16
			c0.04,1.68,0.2,5.2,0.4,7.8L436.29,229.95z"/>
		<path class="st0" d="M454.13,249.03v-1.48c2.52-0.36,2.52-0.8,1.96-2.52c-0.4-1.2-1.04-3-1.64-4.6h-7.8c-0.44,1.24-1,2.76-1.4,4
			c-0.84,2.52,0.12,2.84,3.28,3.12v1.48h-9.88v-1.48c2.52-0.32,3.16-0.68,4.52-4.04l8.32-20.68l1.92-0.36
			c2.56,6.96,5.28,14.08,7.88,20.76c1.48,3.72,1.84,4,4.44,4.32v1.48H454.13z M450.62,229.91c-1.16,2.88-2.28,5.56-3.28,8.48h6.36
			L450.62,229.91z"/>
		<path class="st0" d="M485.33,234.71c4.2,0.76,7.16,2.76,7.16,6.56c0,2.48-1.56,4.8-3.84,6.08c-2.04,1.12-4.64,1.68-7.6,1.68h-11.2
			v-1.48c3.08-0.32,3.4-0.52,3.4-3.88v-15.24c0-3.36-0.52-3.72-3.36-3.92v-1.48h12.16c3.04,0,4.96,0.4,6.56,1.4
			c1.48,0.96,2.44,2.48,2.44,4.44C491.05,232.19,487.93,234.19,485.33,234.71z M480.26,234.19c3.8,0,5.2-1.64,5.2-4.6
			c0-3.48-2.28-4.8-4.48-4.8c-0.96,0-1.56,0.12-1.88,0.32c-0.44,0.28-0.4,0.64-0.4,1.48v7.6H480.26z M478.7,243.59
			c0,2.88,1.32,3.76,3.48,3.72c2.2-0.04,4.36-1.96,4.36-5.68c0-3.88-1.96-5.72-6.44-5.72h-1.4V243.59z"/>
		<path class="st0" d="M519.37,241.99c-0.32,1.72-1.44,5.96-1.8,7.04h-19.84v-1.48c3.52-0.24,3.84-0.52,3.84-3.88v-15.24
			c0-3.36-0.4-3.68-3.4-3.92v-1.48h12.48v1.48c-3.12,0.28-3.52,0.56-3.52,3.92v15.52c0,2.2,0.08,3.2,2.28,3.24
			c0.08,0.04,1.92,0.04,2.08,0.04c2.28,0,2.88-0.48,3.84-1.56c0.76-0.8,1.8-2.52,2.52-4.16L519.37,241.99z"/>
		<path class="st0" d="M545.89,242.23c-0.2,1.08-1.32,5.68-1.68,6.8h-20.76v-1.44c3.64-0.36,3.88-0.56,3.88-3.92v-15.28
			c0-3.4-0.48-3.64-3.2-3.88v-1.48h13c4.2,0,5.6-0.04,6.16-0.08c0.04,0.72,0.24,4,0.4,6.48l-1.56,0.2c-0.36-1.36-1.04-3-1.72-3.72
			c-0.72-0.8-1.24-1.04-3.28-1.04h-2.6c-1.52,0-1.68,0.08-1.68,1.44v8.36h3.92c2.24,0,2.64-0.6,3.24-3.44h1.56v8.92h-1.56
			c-0.64-2.96-0.96-3.44-3.28-3.44h-3.88v6.88c0,2.76,0.08,3.6,2.56,3.64h2.84c2.24,0,2.84-0.28,3.72-1.36c1-1.16,1.8-2.64,2.44-4
			L545.89,242.23z"/>
		<path class="st0" d="M566.5,229.63c-0.8-2.56-1.92-5.48-5.6-5.48c-2.32,0-3.84,1.64-3.84,3.88c0,2.2,1.48,3.52,5,5.28
			c4.28,2.12,7,4.2,7,8.16c0,4.72-3.92,8.16-9.64,8.16c-2.56,0-4.84-0.68-6.72-1.24c-0.24-0.92-0.92-5.08-1.2-6.96l1.56-0.36
			c0.8,2.52,3.04,6.88,6.96,6.88c2.44,0,3.92-1.52,3.92-4.08c0-2.32-1.44-3.68-4.8-5.48c-4.16-2.24-6.88-4.24-6.88-8.4
			c0-4.2,3.28-7.52,9.28-7.52c2.76,0,4.84,0.6,5.72,0.72c0.16,1.48,0.44,3.56,0.76,6.08L566.5,229.63z"/>
	</g>
</g>
</svg>
